<svg width="2514" height="831" viewBox="0 0 2514 831" fill="none" xmlns="http://www.w3.org/2000/svg">
<line x1="786.915" y1="8.00952" x2="786.915" y2="128.768" stroke="black" stroke-width="5"/>
<line x1="784.229" y1="734.664" x2="784.229" y2="831" stroke="black" stroke-width="5"/>
<line x1="784.899" y1="10.416" x2="1189.38" y2="10.416" stroke="black" stroke-width="5"/>
<line x1="784.902" y1="736.909" x2="1189.38" y2="736.909" stroke="black" stroke-width="5"/>
<line x1="1186.97" y1="8" x2="1186.97" y2="739.421" stroke="black" stroke-width="5"/>
<line x1="2.5" y1="123.854" x2="2.5" y2="828.75" stroke="black" stroke-width="5"/>
<line x1="785.894" y1="126.357" x2="1.4613" y2="126.357" stroke="black" stroke-width="5"/>
<line x1="786.887" y1="826.338" x2="2.45422" y2="826.338" stroke="black" stroke-width="5"/>
<rect x="20.5276" y="144.229" width="675.545" height="669.947" rx="5" fill="#009780"/>
<rect x="799.628" y="545.024" width="151.188" height="176.713" rx="5" fill="#004F7B"/>
<rect x="977.323" y="545.024" width="192.421" height="176.713" rx="5" fill="#004F7B"/>
<rect x="946.889" y="203.378" width="178.677" height="107.01" rx="5" fill="#004F7B"/>
<rect x="1013.65" y="24.7019" width="129.59" height="136.462" rx="5" fill="#004F7B"/>
<rect x="844.788" y="24.7019" width="106.028" height="136.462" rx="5" fill="#004F7B"/>
<line x1="2056.16" y1="7.51392" x2="2056.16" y2="128.22" stroke="black" stroke-width="5"/>
<line x1="2056.16" y1="739.8" x2="2056.16" y2="831" stroke="black" stroke-width="5"/>
<line x1="2053.66" y1="10.3784" x2="2460.04" y2="10.3784" stroke="black" stroke-width="5"/>
<line x1="2053.66" y1="738.641" x2="2460.04" y2="738.641" stroke="black" stroke-width="5"/>
<line x1="2457.17" y1="7.51392" x2="2457.17" y2="741.141" stroke="black" stroke-width="5"/>
<line x1="1268.88" y1="124.197" x2="1268.88" y2="831" stroke="black" stroke-width="5"/>
<line x1="2055" y1="126.697" x2="1267.72" y2="126.697" stroke="black" stroke-width="5"/>
<line x1="2056.34" y1="828.136" x2="1269.07" y2="828.136" stroke="black" stroke-width="5"/>
<rect x="1721.04" y="145.656" width="309.813" height="177.036" rx="5" fill="#DF0B5D"/>
<rect x="1721.04" y="628.482" width="309.813" height="177.036" rx="5" fill="#004F7B"/>
<rect x="2159.61" y="26.2908" width="214.589" height="232.025" rx="5" fill="#004F7B"/>
<rect x="1289.18" y="146.997" width="336.637" height="658.521" rx="5" fill="#009780"/>
<rect x="2072.43" y="543.987" width="124.73" height="177.036" rx="5" fill="#009780"/>
<rect x="2234.72" y="543.987" width="135.459" height="177.036" rx="5" fill="#009780"/>
</svg>
