<svg width="1440" height="1024" viewBox="0 0 1440 1024" fill="none" xmlns="http://www.w3.org/2000/svg">
<g clip-path="url(#clip0_187_32)">
<path d="M1183.75 164.56C1197.41 164.56 1208.49 153.466 1208.49 139.78C1208.49 126.094 1197.41 115 1183.75 115C1170.08 115 1159 126.094 1159 139.78C1159 153.466 1170.08 164.56 1183.75 164.56Z" fill="#C84348"/>
<rect x="-219.424" y="451" width="587" height="31.0398" rx="15.5199" transform="rotate(41.5209 -219.424 451)" fill="#004F7B"/>
<rect x="-219.424" y="513.358" width="587" height="31.0398" rx="15.5199" transform="rotate(41.5209 -219.424 513.358)" fill="#DF0B5D"/>
<rect x="-219.424" y="575.717" width="587" height="31.0398" rx="15.5199" transform="rotate(41.5209 -219.424 575.717)" fill="#009780"/>
<rect x="1280.58" y="21" width="587" height="31.0398" rx="15.5199" transform="rotate(41.5209 1280.58 21)" fill="#004F7B"/>
<rect x="1280.58" y="83.3584" width="587" height="31.0398" rx="15.5199" transform="rotate(41.5209 1280.58 83.3584)" fill="#DF0B5D"/>
<rect x="1280.58" y="145.717" width="587" height="31.0398" rx="15.5199" transform="rotate(41.5209 1280.58 145.717)" fill="#009780"/>
<path d="M326.294 763L391.789 797.406L355.013 849.818L330.589 832.616L353.402 800.629L322 794.449L326.294 763Z" fill="#004F7B"/>
<path d="M1120.11 158L1159.15 181.877L1116 206.519L1120.11 158Z" fill="#009780"/>
<path d="M1247.74 123.27L1237.99 106L1220 115.011L1247.74 123.27Z" fill="#004F7B"/>
<path d="M1216.39 237.656L1197.26 176L1178 214.624L1216.39 237.656Z" fill="#004F7B"/>
<path d="M293.002 850.046C301.288 850.046 308.005 843.32 308.005 835.023C308.005 826.726 301.288 820 293.002 820C284.717 820 278 826.726 278 835.023C278 843.32 284.717 850.046 293.002 850.046Z" fill="#DF0B5D"/>
<path d="M255 771.425L287.573 752L284.962 762.637L255 771.425Z" fill="#713D3D"/>
<path d="M475.744 871.1L465.997 852L448 861.964L475.744 871.1Z" fill="#009780"/>
<path d="M385.114 838L424.15 861.877L381 886.519L385.114 838Z" fill="#009780"/>
</g>
<defs>
<clipPath id="clip0_187_32">
<rect width="1440" height="1024" fill="white"/>
</clipPath>
</defs>
</svg>
