<svg width="1440" height="1024" viewBox="0 0 1440 1024" fill="none" xmlns="http://www.w3.org/2000/svg">
<line x1="917.004" y1="92.998" x2="917.004" y2="216.002" stroke="black" stroke-width="5"/>
<line x1="917.5" y1="837" x2="917.5" y2="929" stroke="black" stroke-width="5"/>
<line x1="914.998" y1="95.4951" x2="1327" y2="95.4951" stroke="black" stroke-width="5"/>
<line x1="915" y1="835.5" x2="1327" y2="835.5" stroke="black" stroke-width="5"/>
<line x1="1324.5" y1="92.9878" x2="1324.5" y2="838.012" stroke="black" stroke-width="5"/>
<line x1="118" y1="210.997" x2="118" y2="929.003" stroke="black" stroke-width="5"/>
<line x1="916.011" y1="213.5" x2="116.989" y2="213.5" stroke="black" stroke-width="5"/>
<line x1="917.022" y1="926.5" x2="118" y2="926.5" stroke="black" stroke-width="5"/>
<rect x="577" y="233" width="315" height="180" rx="5" fill="#004F7B"/>
<rect x="577" y="723" width="315" height="180" rx="5" fill="#004F7B"/>
<rect x="1022" y="112" width="218" height="236" rx="5" fill="#004F7B"/>
<rect x="138" y="234" width="343" height="669" rx="5" fill="#713D3D"/>
<rect x="934" y="638" width="126" height="180" rx="5" fill="#009780"/>
<rect x="1098" y="642" width="138" height="180" rx="5" fill="#009780"/>
</svg>
