<svg width="1440" height="1024" viewBox="0 0 1440 1024" fill="none" xmlns="http://www.w3.org/2000/svg">
<line x1="917.004" y1="92.998" x2="917.004" y2="216.002" stroke="black" stroke-width="5"/>
<line x1="917.5" y1="837" x2="917.5" y2="929" stroke="black" stroke-width="5"/>
<line x1="914.998" y1="95.4951" x2="1327" y2="95.4951" stroke="black" stroke-width="5"/>
<line x1="915" y1="835.5" x2="1327" y2="835.5" stroke="black" stroke-width="5"/>
<line x1="1324.5" y1="92.9878" x2="1324.5" y2="838.012" stroke="black" stroke-width="5"/>
<line x1="118" y1="210.997" x2="118" y2="929.003" stroke="black" stroke-width="5"/>
<line x1="916.011" y1="213.5" x2="116.989" y2="213.5" stroke="black" stroke-width="5"/>
<line x1="917.022" y1="926.5" x2="118" y2="926.5" stroke="black" stroke-width="5"/>
<rect x="138" y="231" width="687" height="674" rx="5" fill="#009780"/>
<rect x="930" y="640" width="154" height="180" rx="5" fill="#004F7B"/>
<rect x="1111" y="640" width="196" height="180" rx="5" fill="#DF0B5D"/>
<rect x="1080" y="292" width="182" height="109" rx="5" fill="#DF0B5D"/>
<rect x="1148" y="110" width="132" height="139" rx="5" fill="#DF0B5D"/>
<rect x="976" y="110" width="108" height="139" rx="5" fill="#DF0B5D"/>
</svg>
